<?xml version="1.0" encoding="UTF-8"?>
<!DOCTYPE svg PUBLIC "-//W3C//DTD SVG 1.1//EN"
    "http://www.w3.org/Graphics/SVG/1.1/DTD/svg11.dtd"><svg xmlns="http://www.w3.org/2000/svg" height="500.0000" stroke-opacity="1" viewBox="0 0 500 500" font-size="1" width="500.0000" xmlns:xlink="http://www.w3.org/1999/xlink" stroke="rgb(0,0,0)" version="1.1"><defs></defs><g stroke-linejoin="miter" stroke-opacity="1.0" fill-opacity="0.0" stroke="rgb(37,51,64)" stroke-width="9.306048591020998" fill="rgb(0,0,0)" stroke-linecap="butt" stroke-miterlimit="10.0"><path d="M 466.5064,125.0000 l -216.5064,-125.0000 l -216.5064,125.0000 l -0.0000,250.0000 l 216.5064,125.0000 l 216.5064,-125.0000 Z"/></g><g stroke-linejoin="miter" stroke-opacity="1.0" fill-opacity="1.0" stroke="rgb(37,51,64)" stroke-width="9.306048591020998" fill="rgb(255,255,255)" stroke-linecap="butt" stroke-miterlimit="10.0"><defs><clipPath id="testmyClip1"><path d="M 466.5064,125.0000 l -216.5064,-125.0000 l -216.5064,125.0000 l -0.0000,250.0000 l 216.5064,125.0000 l 216.5064,-125.0000 Z"/></clipPath></defs><g clip-path="url(#testmyClip1)"><path d="M 466.5064,125.0000 l -216.5064,-125.0000 l -216.5064,125.0000 l -0.0000,250.0000 l 216.5064,125.0000 l 216.5064,-125.0000 Z"/></g></g><g stroke-linejoin="miter" stroke-opacity="1.0" fill-opacity="1.0" stroke="rgb(37,51,64)" stroke-width="0.0" fill="rgb(37,51,64)" stroke-linecap="butt" stroke-miterlimit="10.0"><defs><clipPath id="testmyClip2"><path d="M 466.5064,125.0000 l -216.5064,-125.0000 l -216.5064,125.0000 l -0.0000,250.0000 l 216.5064,125.0000 l 216.5064,-125.0000 Z"/></clipPath></defs><g clip-path="url(#testmyClip2)"><path d="M 353.9230,440.0000 l -103.9230,60.0000 l -103.9230,-60.0000 l 0.0000,-198.7500 Z"/></g></g><g stroke-linejoin="miter" stroke-opacity="1.0" fill-opacity="1.0" stroke="rgb(37,51,64)" stroke-width="0.0" fill="rgb(37,51,64)" stroke-linecap="butt" stroke-miterlimit="10.0"><defs><clipPath id="testmyClip3"><path d="M 466.5064,125.0000 l -216.5064,-125.0000 l -216.5064,125.0000 l -0.0000,250.0000 l 216.5064,125.0000 l 216.5064,-125.0000 Z"/></clipPath></defs><g clip-path="url(#testmyClip3)"><path d="M 353.9230,60.0000 l -103.9230,-60.0000 l -103.9230,60.0000 l 207.8461,198.7500 Z"/></g></g><g stroke-linejoin="miter" stroke-opacity="1.0" fill-opacity="1.0" stroke="rgb(37,51,64)" stroke-width="9.306048591020998" fill="rgb(255,255,255)" stroke-linecap="butt" stroke-miterlimit="10.0"><defs><clipPath id="testmyClip4"><path d="M 466.5064,125.0000 l -216.5064,-125.0000 l -216.5064,125.0000 l -0.0000,250.0000 l 216.5064,125.0000 l 216.5064,-125.0000 Z"/></clipPath></defs><g clip-path="url(#testmyClip4)"><path d="M 250.0000,500.0000 l 216.5064,-125.0000 l 0.0000,-250.0000 l -216.5064,125.0000 Z"/></g></g><g stroke-linejoin="miter" stroke-opacity="1.0" fill-opacity="0.0" stroke="rgb(37,51,64)" stroke-width="9.306048591020998" fill="rgb(0,0,0)" stroke-linecap="butt" stroke-miterlimit="10.0"><defs><clipPath id="testmyClip5"><path d="M 466.5064,125.0000 l -216.5064,-125.0000 l -216.5064,125.0000 l -0.0000,250.0000 l 216.5064,125.0000 l 216.5064,-125.0000 Z"/></clipPath></defs><g clip-path="url(#testmyClip5)"><path d="M 250.0000,333.3333 l 216.5064,-125.0000 l 0.0000,-83.3333 l -216.5064,125.0000 Z"/></g></g><g stroke-linejoin="miter" stroke-opacity="1.0" fill-opacity="0.0" stroke="rgb(37,51,64)" stroke-width="9.306048591020998" fill="rgb(0,0,0)" stroke-linecap="butt" stroke-miterlimit="10.0"><defs><clipPath id="testmyClip6"><path d="M 466.5064,125.0000 l -216.5064,-125.0000 l -216.5064,125.0000 l -0.0000,250.0000 l 216.5064,125.0000 l 216.5064,-125.0000 Z"/></clipPath></defs><g clip-path="url(#testmyClip6)"><path d="M 250.0000,416.6667 l 216.5064,-125.0000 l 0.0000,-83.3333 l -216.5064,125.0000 Z"/></g></g><g stroke-linejoin="miter" stroke-opacity="1.0" fill-opacity="0.0" stroke="rgb(37,51,64)" stroke-width="9.306048591020998" fill="rgb(0,0,0)" stroke-linecap="butt" stroke-miterlimit="10.0"><defs><clipPath id="testmyClip7"><path d="M 466.5064,125.0000 l -216.5064,-125.0000 l -216.5064,125.0000 l -0.0000,250.0000 l 216.5064,125.0000 l 216.5064,-125.0000 Z"/></clipPath></defs><g clip-path="url(#testmyClip7)"><path d="M 250.0000,500.0000 l 216.5064,-125.0000 l 0.0000,-83.3333 l -216.5064,125.0000 Z"/></g></g></svg>